<?xml version="1.0" encoding="UTF-8"?>
<svg viewBox="0 0 322 332" version="1.1" xmlns="http://www.w3.org/2000/svg" xmlns:xlink="http://www.w3.org/1999/xlink">
    <!-- Generator: Sketch 59.1 (86144) - https://sketch.com -->
    <title>Group</title>
    <desc>Created with Sketch.</desc>
    <g id="Welcome" stroke="none" stroke-width="1" fill="none" fill-rule="evenodd">
        <g id="Donate" transform="translate(-546.000000, -189.000000)">
            <g id="Group" transform="translate(546.000000, 189.000000)">
                <path d="M177.382747,72.1388383 C175.38479,69.0486368 172.037512,63.8759171 169.695218,60.5562789 C168.598144,59.0073809 167.172748,56.9204657 166.043642,55.3963501 C161.19089,48.8418135 161.19089,48.8418135 159.03678,46.1601214 C155.100926,41.2636051 149.667604,34.7966062 142.508593,28.1889074 C138.905064,24.8660715 135.733959,22.3950296 135.705931,22.3726455 C133.715983,20.8505285 131.021344,18.8723359 128.971336,17.4277637 C127.906293,16.6762983 126.436854,15.7425627 125.331772,15.0554515 C115.894529,9.2048141 109.724487,6.88566411 104.187064,4.82592956 C97.9289351,2.49918497 89.3565398,0.849158922 86.5137558,0.617323867 C83.1144267,0.339921231 78.5699762,-0.124948027 75.1626393,0.0313407776 C71.0265887,0.220805978 65.5372128,1.00424858 61.4652249,1.76530711 C58.0859155,2.39605835 53.789708,4.11803321 50.594579,5.38113454 C49.3613712,5.86878759 47.9399792,6.63104527 46.5946617,7.3589274 C45.8939755,7.70588055 45.2012971,8.06842261 44.5286384,8.46014391 L33.4457846,14.8895696 C36.064349,13.3690514 38.8831095,12.1870923 41.8700347,11.3508872 C38.8831095,12.1870923 36.064349,13.3690514 33.4457846,14.8895696 C30.1025104,17.0784123 25.6621618,20.0838739 22.7312915,22.7975432 C19.7203428,25.5863591 16.0967941,29.7477983 13.7585042,33.1209984 C11.8326181,35.9070162 9.42626144,39.7742648 8.09295569,42.8876497 C7.2441244,44.8618451 6.0149206,47.4567989 5.31823832,49.4893527 C4.26921097,52.569961 2.96793659,56.7242053 2.27926215,59.9055419 C0.981991689,65.9296559 0.349372144,70.8845307 0.0731015828,77.5314016 C-0.0269964465,79.9280964 -0.0229925253,83.1306179 0.077105504,85.5277124 C0.197223139,88.4296478 0.545564281,92.2893017 0.809823079,95.1820436 C1.38238381,101.51234 3.27623852,109.814033 4.67360701,116.015221 C5.62654025,120.245811 7.3762538,125.768282 8.63748897,129.91733 C9.95477904,134.237057 11.9327161,139.932605 13.6503983,144.108434 C17.2419156,152.839822 22.2267974,164.407192 26.3188049,172.915538 C28.4208635,177.287628 31.3477299,183.059921 33.6900238,187.308898 C44.0842031,206.160685 44.2803953,206.520829 49.8258261,215.561597 C56.8246803,226.971879 59.2390448,230.817143 66.9025499,242.400901 C70.2578358,247.473293 77.9493684,258.773253 83.7990972,266.911463 C88.7999948,273.874509 95.6507039,283.411723 106.305138,297.241884 C110.557302,302.761956 122.484984,318.658646 133.079359,328 C130.90523,326.085362 114.969624,264.549144 115.225875,262.622514 C115.257906,262.434648 114.685345,260.00038 111.886604,256.111147 L110.849589,245.770504 C111.045781,177.10176 131.053375,109.892378 155.537353,95.6880836 L166.620207,89.258658 C177.454817,82.9735297 187.348507,88.1182693 195,101.756566 C185.907095,85.5464991 179.648966,75.6439445 177.382747,72.1388383" id="Fill-194" fill="#F5590E"></path>
                <path d="M321.901506,196.380044 C321.724885,190.330856 320.633048,183.566698 319.99882,180.072805 C319.023392,174.718147 317.365566,168.618061 316.237602,165.216345 C313.801039,157.864661 312.058917,153.737956 311.027292,151.570604 C310.104048,149.631289 308.964041,147.000649 307.93643,145.114236 C306.916847,143.237841 305.60022,140.711001 304.532468,138.861858 C303.464716,137.015121 301.931327,134.616926 300.811391,132.798242 C300.779279,132.746143 297.13447,127.002339 292.205148,120.948743 C287.203571,114.808981 283.093126,110.744395 281.95312,109.645089 C279.09909,106.892616 275.546606,103.466853 269.64587,98.9437888 C265.989019,96.1384146 260.778709,92.8469092 256.860942,90.4102414 L256.864956,90.4118445 L256.860942,90.4098406 L256.856927,90.4086383 L256.856927,90.4066345 C252.790638,88.1122392 245.228062,83.8468682 233.755746,80.5605728 C231.150591,79.814744 227.614163,79.0528845 224.960839,78.5110466 C223.435478,78.2000508 221.376242,77.9499717 219.838839,77.7199311 C217.566855,77.38008 214.295358,77.1460317 210.120688,77.0254006 C208.575257,76.9809154 206.512006,76.9897322 204.966575,77.0931303 C202.240997,77.2762812 198.612245,77.6365714 195.902723,77.9808309 C194.381377,78.1740009 192.378338,78.5940055 190.881076,78.9190281 C189.540365,79.2103863 187.770144,79.690506 186.441475,80.0327617 C186.401334,80.0435824 182.138353,81.1773543 177.18896,83.2805834 C175.715783,83.9073841 173.776969,84.8087108 172.343933,85.5252835 C171.689634,85.8531115 170.934982,86.2602915 170.188358,86.6726815 L170.216457,86.6594562 C169.493918,87.0377809 168.775393,87.4309341 168.060882,87.8449271 L156.95385,94.2912762 C156.383847,94.6207072 155.817858,94.960959 155.255883,95.3128331 C130.709623,109.554515 106.809634,153.692268 108.045979,243.678251 C107.628512,250.355042 116.427433,304.847431 124.094376,315.415676 C129.75828,325.863691 134.779927,332.067575 143.253705,332 C147.922111,331.951352 157.688431,331.622723 170.653995,329.987591 C183.976813,328.304366 195.461172,325.783537 198.435624,325.030094 C201.767333,324.188481 206.214962,323.094386 209.518572,322.152581 C212.609434,321.2749 216.675723,319.920305 219.742501,318.96247 C222.873504,317.984597 226.931765,316.345457 229.990514,315.171207 C233.667435,313.764513 238.444222,311.556282 241.984664,309.836989 C245.003272,308.374187 248.888926,306.153933 251.847323,304.574908 L262.958369,298.126556 C264.57204,297.192767 266.161626,296.214894 267.731141,295.204959 C270.777848,293.30532 273.932936,291.233351 276.381541,289.313673 C281.587836,285.233858 288.174985,279.334557 292.871489,274.677635 C296.432001,271.142864 300.413995,265.712461 303.364363,261.656692 C305.271064,259.031663 307.39854,255.256431 309.024253,252.455064 C311.773916,247.705967 314.431254,240.840816 316.374082,235.706981 C317.542187,232.621069 318.625995,228.332854 319.368605,225.11469 C322.363128,212.070101 322.074113,202.248486 321.901506,196.380044" id="Fill-195" fill="#FF5D0F"></path>
                <path d="M134.003574,329 C133.666373,328.739919 133.329172,328.463833 133,328.175744 C194.037393,312.598901 210.186912,284.142054 217.007204,263.935772 C220.852901,252.25214 226.127688,236.255166 216.613803,201.746838 C215.867143,199.034395 214.82744,195.428074 213.948309,192.754843 C208.713665,176.79148 200.757327,161.853636 196.104757,145.671005 C193.696178,137.2936 194.699753,134.505934 196.088699,130.647534 C198.926808,128.161561 202.499533,127 206.545944,127 C231.069288,127 273.291669,169.572836 279,217.709801 L273.19934,220.818367 C274.451801,231.401658 274.247072,243.789509 275.407204,254.840945 C258.567226,304.572406 194.394666,328.007692 134.003574,329" id="Fill-200" fill="#EB560E"></path>
                <path d="M113,306 C110.268861,302.554094 108.004891,299.575904 106.519535,297.637082 C105.225837,295.734239 103.744474,293.531577 101.99958,290.905173 C99.1646258,286.547821 95.387349,280.735354 92.588331,276.350019 C83.221004,261.363127 82.6580061,260.467671 77.8186198,252.320622 C75.3070901,248.015238 73.3984872,244.737231 71.8652163,242.102832 L71.8971595,231.641189 C82.3904823,253.731764 95.98229,278.8485 113,306 M67.4810198,234.479464 C67.2454391,234.063717 67.0138513,233.655965 66.7862564,233.25221 L67.4810198,233.651967 L67.4810198,234.479464 M67.4890056,231.793097 L65.2569784,230.501882 C64.4464211,229.034773 63.5719776,227.439743 62.4859107,225.448952 C60.7290377,222.138964 59.2716318,219.39783 58.0378279,217.073243 L67.512963,222.550714 L67.4890056,231.793097 M66.5906047,220.15377 L56.6123651,214.385276 C53.2583349,208.044729 51.8208935,205.24563 49.8404185,201.215679 L61.2521067,207.810072 C62.9091573,211.786855 64.6899876,215.907951 66.5906047,220.15377 M60.2379119,205.359561 L48.5746715,198.617658 C48.2871832,198.030015 47.9837233,197.408793 47.6642919,196.744397 C45.5560444,192.237536 43.9189582,188.745658 42.6052964,185.916977 L55.534284,193.390035 C56.9677325,197.218509 58.5329466,201.207285 60.2379119,205.359561 M54.6518546,191.015878 L41.4234001,183.368526 C40.9362672,182.315965 40.4970489,181.364543 40.0977596,180.488676 L40.1177241,173.358209 L50.6310114,179.436115 C51.8208935,183.090295 53.1585126,186.955945 54.6518546,191.015878 M49.896319,177.146707 L40.121717,171.49654 L40.1496672,162.255356 L46.6780473,166.029463 C47.5724553,169.460977 48.6425506,173.172722 49.896319,177.146707 M35.7215489,170.415597 C35.3182667,169.430996 34.8790485,168.360846 34.3839297,167.149182 C26.9052412,147.786549 26.61376,147.031009 23.6350618,137.394065 C18.5800593,119.250691 17.3662198,114.148192 14.8267398,96.3885849 C13.9682678,85.5415768 13.9163602,84.8923714 14.0640973,78.5074516 C14.6989673,68.5251181 14.7628535,67.4817521 16.052558,60.6922782 C17.4899995,54.8202468 19.2828084,47.512288 23.1758791,39.7601991 C24.896816,36.7300406 27.2765802,32.73247 29.2410836,29.8574172 C34.635482,23.5664403 40.2415038,21 45.456222,21 C57.4309081,21 67.3692188,34.5141872 68.0520035,47.4926999 C68.3035558,52.2757931 68.1997406,52.6355745 65.5484596,61.8515737 C64.6261013,63.7180394 63.4841339,66.2485016 62.4899036,68.0769904 C56.8199955,78.5206436 52.3319838,86.7840218 48.9220532,93.9000972 C47.6043985,90.9083154 47.0813295,87.7426392 44.3541836,85.2661442 C43.8550719,83.1842095 41.7388386,82.5445982 40.7965159,81.6303538 C40.5529494,81.4508628 40.3173687,81.2953573 40.0817881,81.1606392 C39.1115151,80.5985808 38.217107,80.397503 37.3785995,80.397503 C35.9371651,80.397503 34.6594394,80.9895432 33.4296283,81.3661143 C31.3573168,83.4988183 31.4331818,88.1292043 29.4087851,90.4821743 C29.5325647,90.5541306 29.6443658,90.5845121 29.7401952,90.5845121 C29.9957403,90.5845121 30.1794134,90.3846336 30.3471149,90.1787587 C30.530788,89.9644889 30.6984895,89.7418243 30.9380631,89.7418243 C31.0139281,89.7418243 31.0937859,89.7646104 31.1856224,89.8181779 C31.3573168,89.9169179 31.5609544,90.1203942 31.8164995,90.4773773 C31.6607767,90.8335608 31.3653026,91.1789509 31.2495087,91.4495864 C31.3094021,91.4531842 31.3732884,91.4787687 31.4491534,91.5211429 C31.7206701,91.6778477 32.0760376,92.0600155 32.3275898,92.3742245 C33.2459552,93.6514483 31.8524356,93.4387776 31.6807412,94.1679344 C31.6088691,94.4225797 31.760599,94.5796842 31.948265,94.6884181 C32.0920092,94.7715676 32.2557178,94.8267341 32.359533,94.8759042 C32.5272345,96.0931644 31.3692955,95.9936249 31.2495087,96.905071 C31.1177433,97.015404 30.9620204,97.058178 30.7943189,97.058178 C30.4908591,97.058178 30.1434774,96.9174635 29.8080744,96.776749 C29.4686785,96.6360345 29.1452541,96.49532 28.8937019,96.49532 C28.6900643,96.49532 28.5303486,96.5872642 28.4504907,96.845907 C28.702043,97.3156215 28.9575882,97.584658 29.2171262,97.7329679 C29.4407282,97.8632887 29.6683231,97.9012656 29.895918,97.9012656 C30.0596266,97.9012656 30.2233352,97.8816775 30.3870438,97.8620894 C30.5347809,97.8445001 30.6865108,97.826511 30.8422337,97.826511 C31.0937859,97.826511 31.3613097,97.8748817 31.6607767,98.0507748 C33.2419623,100.406543 34.7991906,103.132087 35.6736342,105.793669 C34.5676028,107.178428 33.8488821,107.862012 33.2459552,110.025897 C33.9447115,109.716086 35.793421,109.686903 36.0928879,108.053496 C35.8253641,109.786443 36.0130301,113.039266 34.9389419,114.520366 C36.6399143,114.06864 36.7038006,111.020893 38.5724745,111.020893 C38.7242044,111.020893 38.887913,111.04088 39.0675932,111.084054 C39.4389323,111.422249 39.6904845,111.877972 39.8861363,112.286523 C39.9140865,112.713064 39.9460297,113.138006 39.9739799,113.560149 C39.9739799,114.129803 40.2494896,114.857361 40.6128428,115.066034 C40.6767291,115.104011 40.7446083,115.124799 40.8164804,115.124799 C40.904324,115.124799 40.9961605,115.08962 41.09199,115.011268 C41.0879971,115.448202 41.0879971,115.887135 41.0879971,116.326069 C40.3173687,120.831331 40.1017525,125.396556 40.3892408,130.489461 C39.4788612,131.553614 38.776112,132.752486 38.6124034,133.879001 C38.2650217,136.24996 39.1195008,138.556159 39.6226054,139.562347 C39.8661718,140.047253 40.2734469,140.879547 40.5529494,141.71424 C40.4491342,141.741023 40.345319,141.772204 40.2454967,141.807783 L39.7823211,143.439191 C39.4908399,143.445587 39.2113374,143.469173 38.9478064,143.510348 C38.9478064,143.510348 38.4606735,147.352813 37.7379599,151.667391 L35.7774494,150.535679 L35.7215489,170.415597 M46.1230352,163.84479 L45.568023,163.524185 L45.6957956,162.065872 C45.831554,162.648717 45.9752981,163.243156 46.1230352,163.84479" id="Fill-204" fill="#F77537"></path>
            </g>
        </g>
    </g>
</svg>