<?xml version="1.0" encoding="UTF-8"?>
<svg width="65px" height="62px" viewBox="0 0 65 62" version="1.1" xmlns="http://www.w3.org/2000/svg" xmlns:xlink="http://www.w3.org/1999/xlink">
    <!-- Generator: Sketch 59.1 (86144) - https://sketch.com -->
    <title>iconfinder_icon-ios7-heart-outline_211754</title>
    <desc>Created with Sketch.</desc>
    <g id="Welcome" stroke="none" stroke-width="1" fill="none" fill-rule="evenodd">
        <g id="Home-Page" transform="translate(-107.000000, -51.000000)" fill="#6ED3AA" fill-rule="nonzero" stroke="#6ED3AA" stroke-width="5.8">
            <g id="iconfinder_icon-ios7-heart-outline_211754" transform="translate(110.000000, 54.000000)">
                <path d="M42.5291667,2.40346821 C50.3190104,2.40346821 56.6492187,8.84913295 56.6492187,16.8086705 C56.6492187,20.8976879 54.9744792,24.5809249 52.3010417,27.2028902 L29.5,50.5820809 L6.29947917,26.7815029 C3.871875,24.1907514 2.36614583,20.6791908 2.36614583,16.8086705 C2.36614583,8.84913295 8.68098958,2.40346821 16.4861979,2.40346821 C22.3554687,2.40346821 27.3796875,6.05549133 29.5153646,11.2682081 C31.6203125,6.07109827 36.6598958,2.40346821 42.5291667,2.40346821 M42.5291667,0 C37.3359375,0 32.5729167,2.46589595 29.5,6.52369942 C26.4270833,2.46589595 21.6640625,0 16.4708333,0 C7.39036458,0 0,7.53815029 0,16.8086705 C0,21.1630058 1.62864583,25.2988439 4.59401042,28.4514451 L27.8252604,52.283237 L29.5,54 L31.1747396,52.283237 L53.9604167,28.9040462 C57.1869792,25.7358382 59,21.4283237 59,16.8086705 C59,7.53815029 51.6096354,0 42.5291667,0 L42.5291667,0 Z" id="Shape"></path>
            </g>
        </g>
    </g>
</svg>