<svg version="1.0" xmlns="http://www.w3.org/2000/svg"
 width="256.000000pt" height="256.000000pt" viewBox="0 0 256.000000 256.000000"
 preserveAspectRatio="xMidYMid meet">
<g transform="translate(0.000000,256.000000) scale(0.100000,-0.100000)"
fill="#000000" stroke="none">
<path d="M290 2060 l0 -210 210 0 210 0 0 210 0 210 -210 0 -210 0 0 -210z
m360 0 l0 -150 -150 0 -150 0 0 150 0 150 150 0 150 0 0 -150z"/>
<path d="M410 2060 l0 -90 90 0 90 0 0 90 0 90 -90 0 -90 0 0 -90z"/>
<path d="M770 2120 l0 -150 30 0 c27 0 30 -3 30 -30 0 -27 -3 -30 -30 -30
l-30 0 0 -60 0 -60 -60 0 -60 0 0 -30 c0 -27 -3 -30 -30 -30 -27 0 -30 3 -30
30 0 27 -3 30 -30 30 l-30 0 0 -60 0 -60 30 0 c27 0 30 -3 30 -30 l0 -30 -60
0 -60 0 0 90 0 90 -60 0 -60 0 0 -60 0 -60 -30 0 c-27 0 -30 -3 -30 -30 0 -27
3 -30 30 -30 27 0 30 3 30 30 0 27 3 30 30 30 l30 0 0 -60 0 -60 90 0 90 0 0
-150 0 -150 60 0 60 0 0 -30 0 -30 -60 0 -60 0 0 -30 0 -30 90 0 90 0 0 30 c0
27 3 30 30 30 27 0 30 3 30 30 0 27 3 30 30 30 27 0 30 -3 30 -30 0 -27 3 -30
30 -30 27 0 30 -3 30 -30 0 -27 -3 -30 -30 -30 -27 0 -30 -3 -30 -30 0 -27 -3
-30 -30 -30 -27 0 -30 -3 -30 -30 0 -27 -3 -30 -30 -30 -27 0 -30 3 -30 30 l0
30 -60 0 -60 0 0 -30 c0 -27 -3 -30 -30 -30 -27 0 -30 3 -30 30 0 27 -3 30
-30 30 l-30 0 0 -60 0 -60 -30 0 c-27 0 -30 3 -30 30 0 27 -3 30 -30 30 -27 0
-30 -3 -30 -30 0 -27 3 -30 30 -30 l30 0 0 -60 0 -60 -30 0 c-27 0 -30 3 -30
30 0 27 -3 30 -30 30 -27 0 -30 3 -30 30 0 27 -3 30 -30 30 -27 0 -30 -3 -30
-30 0 -27 3 -30 30 -30 27 0 30 -3 30 -30 0 -27 -3 -30 -30 -30 -27 0 -30 -3
-30 -30 0 -27 3 -30 30 -30 27 0 30 3 30 30 0 27 3 30 30 30 27 0 30 -3 30
-30 0 -27 3 -30 30 -30 27 0 30 3 30 30 0 27 3 30 30 30 27 0 30 -3 30 -30 0
-27 3 -30 30 -30 l30 0 0 60 0 60 60 0 60 0 0 -30 c0 -27 -3 -30 -30 -30 -27
0 -30 -3 -30 -30 l0 -30 60 0 60 0 0 -60 0 -60 30 0 c27 0 30 -3 30 -30 0 -27
-3 -30 -30 -30 -27 0 -30 -3 -30 -30 0 -27 3 -30 30 -30 27 0 30 -3 30 -30 0
-27 -3 -30 -30 -30 l-30 0 0 -60 0 -60 30 0 c27 0 30 -3 30 -30 l0 -30 120 0
120 0 0 30 c0 27 3 30 30 30 27 0 30 3 30 30 l0 30 60 0 60 0 0 30 c0 27 3 30
30 30 27 0 30 -3 30 -30 0 -27 3 -30 30 -30 27 0 30 -3 30 -30 l0 -30 150 0
150 0 0 -30 0 -30 90 0 90 0 0 30 c0 27 3 30 30 30 27 0 30 -3 30 -30 0 -27 3
-30 30 -30 27 0 30 3 30 30 0 27 3 30 30 30 27 0 30 -3 30 -30 l0 -30 120 0
120 0 0 30 c0 27 -3 30 -30 30 -27 0 -30 3 -30 30 0 27 3 30 30 30 27 0 30 3
30 30 0 27 -3 30 -30 30 -27 0 -30 -3 -30 -30 0 -27 -3 -30 -30 -30 l-30 0 0
60 0 60 -30 0 c-27 0 -30 -3 -30 -30 0 -27 -3 -30 -30 -30 l-30 0 0 90 0 90
30 0 30 0 0 60 0 60 30 0 30 0 0 -90 0 -90 30 0 c27 0 30 -3 30 -30 0 -27 3
-30 30 -30 l30 0 0 120 0 120 -60 0 -60 0 0 30 c0 27 3 30 30 30 27 0 30 3 30
30 0 27 3 30 30 30 l30 0 0 60 0 60 -120 0 -120 0 0 90 0 90 -60 0 -60 0 0 60
0 60 60 0 60 0 0 -30 0 -30 60 0 60 0 0 -30 c0 -27 -3 -30 -30 -30 -27 0 -30
-3 -30 -30 0 -27 3 -30 30 -30 27 0 30 3 30 30 0 27 3 30 30 30 27 0 30 -3 30
-30 0 -27 3 -30 30 -30 l30 0 0 210 0 210 -30 0 c-27 0 -30 3 -30 30 0 27 3
30 30 30 l30 0 0 90 0 90 -150 0 -150 0 0 -30 c0 -27 -3 -30 -30 -30 -27 0
-30 3 -30 30 0 27 -3 30 -30 30 l-30 0 0 -60 0 -60 -60 0 -60 0 0 -30 c0 -27
-3 -30 -30 -30 -27 0 -30 3 -30 30 l0 30 -60 0 -60 0 0 60 0 60 120 0 120 0 0
90 0 90 -30 0 -30 0 0 90 0 90 30 0 c27 0 30 3 30 30 0 27 -3 30 -30 30 -27 0
-30 3 -30 30 l0 30 -90 0 -90 0 0 -30 0 -30 -60 0 -60 0 0 30 c0 27 -3 30 -30
30 -27 0 -30 -3 -30 -30 0 -27 -3 -30 -30 -30 -27 0 -30 -3 -30 -30 0 -27 -3
-30 -30 -30 l-30 0 0 60 0 60 -30 0 c-27 0 -30 -3 -30 -30 0 -27 -3 -30 -30
-30 -27 0 -30 3 -30 30 l0 30 -60 0 -60 0 0 -30 0 -30 -60 0 -60 0 0 30 0 30
-60 0 -60 0 0 -150z m120 60 l0 -30 60 0 60 0 0 -30 c0 -27 -3 -30 -30 -30
-27 0 -30 -3 -30 -30 0 -27 3 -30 30 -30 27 0 30 -3 30 -30 l0 -30 60 0 60 0
0 30 c0 27 3 30 30 30 27 0 30 3 30 30 0 27 -3 30 -30 30 -27 0 -30 3 -30 30
0 27 3 30 30 30 27 0 30 -3 30 -30 0 -27 3 -30 30 -30 27 0 30 -3 30 -30 l0
-30 60 0 60 0 0 30 c0 27 -3 30 -30 30 -27 0 -30 3 -30 30 0 27 3 30 30 30 27
0 30 3 30 30 0 27 3 30 30 30 27 0 30 -3 30 -30 0 -27 3 -30 30 -30 27 0 30
-3 30 -30 0 -27 3 -30 30 -30 27 0 30 3 30 30 0 27 3 30 30 30 27 0 30 3 30
30 0 27 3 30 30 30 l30 0 0 -60 0 -60 -60 0 -60 0 0 -60 0 -60 30 0 c27 0 30
3 30 30 0 27 3 30 30 30 l30 0 0 -60 0 -60 30 0 c27 0 30 -3 30 -30 0 -27 -3
-30 -30 -30 -27 0 -30 3 -30 30 0 27 -3 30 -30 30 -27 0 -30 -3 -30 -30 0 -27
-3 -30 -30 -30 -27 0 -30 3 -30 30 0 27 -3 30 -30 30 l-30 0 0 -60 0 -60 -30
0 c-27 0 -30 -3 -30 -30 0 -27 3 -30 30 -30 27 0 30 -3 30 -30 0 -27 3 -30 30
-30 27 0 30 -3 30 -30 l0 -30 -60 0 -60 0 0 -90 0 -90 30 0 c27 0 30 3 30 30
l0 30 60 0 60 0 0 -30 c0 -27 3 -30 30 -30 27 0 30 3 30 30 0 27 3 30 30 30
l30 0 0 60 0 60 30 0 c27 0 30 -3 30 -30 0 -27 3 -30 30 -30 27 0 30 3 30 30
0 27 3 30 30 30 27 0 30 3 30 30 0 27 3 30 30 30 27 0 30 3 30 30 0 27 3 30
30 30 l30 0 0 -60 0 -60 60 0 60 0 0 60 0 60 30 0 30 0 0 -60 0 -60 -30 0
c-27 0 -30 -3 -30 -30 0 -27 3 -30 30 -30 27 0 30 -3 30 -30 l0 -30 -60 0 -60
0 0 -60 0 -60 30 0 c27 0 30 -3 30 -30 0 -27 3 -30 30 -30 27 0 30 -3 30 -30
0 -27 -3 -30 -30 -30 -27 0 -30 3 -30 30 0 27 -3 30 -30 30 -27 0 -30 3 -30
30 0 27 -3 30 -30 30 l-30 0 0 60 0 60 -60 0 -60 0 0 -30 c0 -27 3 -30 30 -30
27 0 30 -3 30 -30 l0 -30 -90 0 -90 0 0 -30 c0 -27 3 -30 30 -30 l30 0 0 -60
0 -60 30 0 c27 0 30 -3 30 -30 0 -27 -3 -30 -30 -30 -27 0 -30 -3 -30 -30 0
-27 -3 -30 -30 -30 -27 0 -30 -3 -30 -30 l0 -30 -60 0 -60 0 0 -30 c0 -27 3
-30 30 -30 27 0 30 -3 30 -30 0 -27 3 -30 30 -30 27 0 30 3 30 30 0 27 3 30
30 30 l30 0 0 -60 0 -60 -60 0 -60 0 0 30 c0 27 -3 30 -30 30 -27 0 -30 3 -30
30 0 27 -3 30 -30 30 -27 0 -30 -3 -30 -30 0 -27 -3 -30 -30 -30 l-30 0 0 90
0 90 30 0 30 0 0 60 0 60 30 0 c27 0 30 3 30 30 0 27 -3 30 -30 30 l-30 0 0
60 0 60 -30 0 c-27 0 -30 -3 -30 -30 0 -27 -3 -30 -30 -30 -27 0 -30 3 -30 30
l0 30 -90 0 -90 0 0 -30 c0 -27 3 -30 30 -30 l30 0 0 -60 0 -60 60 0 60 0 0
-210 0 -210 -60 0 -60 0 0 30 0 30 -60 0 -60 0 0 -30 c0 -27 3 -30 30 -30 27
0 30 -3 30 -30 l0 -30 120 0 120 0 0 -30 0 -30 -60 0 -60 0 0 -30 c0 -27 3
-30 30 -30 27 0 30 -3 30 -30 0 -27 -3 -30 -30 -30 -27 0 -30 3 -30 30 0 27
-3 30 -30 30 -27 0 -30 3 -30 30 0 27 -3 30 -30 30 l-30 0 0 -60 0 -60 30 0
c27 0 30 -3 30 -30 0 -27 -3 -30 -30 -30 -27 0 -30 3 -30 30 l0 30 -60 0 -60
0 0 -30 c0 -27 -3 -30 -30 -30 -27 0 -30 -3 -30 -30 0 -27 -3 -30 -30 -30 -27
0 -30 -3 -30 -30 0 -27 -3 -30 -30 -30 -27 0 -30 3 -30 30 0 27 -3 30 -30 30
-27 0 -30 -3 -30 -30 l0 -30 -60 0 -60 0 0 30 0 30 60 0 60 0 0 30 c0 27 -3
30 -30 30 -27 0 -30 3 -30 30 l0 30 150 0 150 0 0 30 c0 27 -3 30 -30 30 -27
0 -30 3 -30 30 0 27 -3 30 -30 30 -27 0 -30 -3 -30 -30 0 -27 -3 -30 -30 -30
-27 0 -30 3 -30 30 l0 30 -60 0 -60 0 0 60 0 60 30 0 c27 0 30 3 30 30 l0 30
-60 0 -60 0 0 90 0 90 30 0 c27 0 30 3 30 30 0 27 3 30 30 30 27 0 30 3 30 30
0 27 3 30 30 30 l30 0 0 -60 0 -60 -60 0 -60 0 0 -30 0 -30 90 0 90 0 0 120 0
120 -60 0 -60 0 0 60 0 60 -60 0 -60 0 0 30 c0 27 -3 30 -30 30 l-30 0 0 -60
0 -60 -30 0 c-27 0 -30 3 -30 30 0 27 -3 30 -30 30 -27 0 -30 3 -30 30 l0 30
60 0 60 0 0 60 0 60 30 0 c27 0 30 3 30 30 0 27 -3 30 -30 30 -27 0 -30 3 -30
30 0 27 -3 30 -30 30 -27 0 -30 -3 -30 -30 l0 -30 -60 0 -60 0 0 30 0 30 60 0
60 0 0 30 c0 27 -3 30 -30 30 -27 0 -30 3 -30 30 l0 30 60 0 60 0 0 30 c0 27
3 30 30 30 l30 0 0 60 0 60 30 0 30 0 0 -60 0 -60 30 0 30 0 0 60 0 60 30 0
c27 0 30 3 30 30 l0 30 -90 0 -90 0 0 30 c0 27 3 30 30 30 27 0 30 3 30 30 0
27 -3 30 -30 30 l-30 0 0 60 0 60 30 0 c27 0 30 -3 30 -30z m1140 -1200 l0
-30 60 0 60 0 0 -60 0 -60 -60 0 -60 0 0 60 0 60 -30 0 c-27 0 -30 3 -30 30 0
27 3 30 30 30 27 0 30 -3 30 -30z m-360 -210 l0 -60 30 0 30 0 0 -90 0 -90 30
0 c27 0 30 -3 30 -30 l0 -30 -60 0 -60 0 0 -30 0 -30 90 0 90 0 0 60 0 60 30
0 30 0 0 -60 0 -60 30 0 c27 0 30 -3 30 -30 0 -27 -3 -30 -30 -30 -27 0 -30 3
-30 30 0 27 -3 30 -30 30 -27 0 -30 -3 -30 -30 l0 -30 -90 0 -90 0 0 30 c0 27
-3 30 -30 30 -27 0 -30 3 -30 30 0 27 -3 30 -30 30 l-30 0 0 60 0 60 30 0 c27
0 30 3 30 30 0 27 3 30 30 30 27 0 30 3 30 30 0 27 -3 30 -30 30 l-30 0 0 60
0 60 30 0 30 0 0 -60z m300 -90 l0 -90 -90 0 -90 0 0 90 0 90 90 0 90 0 0 -90z"/>
<path d="M1130 1880 l0 -90 90 0 90 0 0 -30 0 -30 -90 0 -90 0 0 -30 c0 -27
-3 -30 -30 -30 l-30 0 0 -60 0 -60 -30 0 -30 0 0 60 0 60 -30 0 c-27 0 -30 3
-30 30 0 27 -3 30 -30 30 -27 0 -30 -3 -30 -30 0 -27 3 -30 30 -30 l30 0 0
-120 0 -120 -60 0 -60 0 0 -30 0 -30 60 0 60 0 0 -30 0 -30 60 0 60 0 0 30 0
30 60 0 60 0 0 30 0 30 -60 0 -60 0 0 -30 0 -30 -60 0 -60 0 0 30 c0 27 3 30
30 30 27 0 30 3 30 30 0 27 3 30 30 30 27 0 30 3 30 30 0 27 3 30 30 30 l30 0
0 60 0 60 30 0 30 0 0 -60 0 -60 30 0 c27 0 30 3 30 30 l0 30 60 0 60 0 0 30
c0 27 3 30 30 30 27 0 30 3 30 30 0 27 -3 30 -30 30 -27 0 -30 3 -30 30 0 27
3 30 30 30 l30 0 0 60 0 60 -30 0 c-27 0 -30 3 -30 30 l0 30 -120 0 -120 0 0
-90z"/>
<path d="M1190 1280 l0 -30 -60 0 -60 0 0 -30 0 -30 60 0 60 0 0 -30 c0 -27
-3 -30 -30 -30 -27 0 -30 -3 -30 -30 0 -27 3 -30 30 -30 l30 0 0 -120 0 -120
-30 0 -30 0 0 -90 0 -90 30 0 c27 0 30 -3 30 -30 0 -27 3 -30 30 -30 27 0 30
3 30 30 0 27 3 30 30 30 27 0 30 3 30 30 0 27 -3 30 -30 30 -27 0 -30 3 -30
30 0 27 -3 30 -30 30 -27 0 -30 3 -30 30 0 27 3 30 30 30 27 0 30 3 30 30 0
27 3 30 30 30 l30 0 0 60 0 60 30 0 c27 0 30 3 30 30 0 27 3 30 30 30 27 0 30
3 30 30 0 27 -3 30 -30 30 -27 0 -30 3 -30 30 0 27 -3 30 -30 30 -27 0 -30 3
-30 30 0 27 -3 30 -30 30 -27 0 -30 3 -30 30 0 27 -3 30 -30 30 -27 0 -30 -3
-30 -30z"/>
<path d="M1850 2060 l0 -210 210 0 210 0 0 210 0 210 -210 0 -210 0 0 -210z
m360 0 l0 -150 -150 0 -150 0 0 150 0 150 150 0 150 0 0 -150z"/>
<path d="M1970 2060 l0 -90 90 0 90 0 0 90 0 90 -90 0 -90 0 0 -90z"/>
<path d="M290 1400 l0 -90 30 0 30 0 0 -60 0 -60 -30 0 -30 0 0 -90 0 -90 30
0 30 0 0 60 0 60 30 0 c27 0 30 -3 30 -30 0 -27 3 -30 30 -30 27 0 30 3 30 30
0 27 3 30 30 30 l30 0 0 120 0 120 -60 0 -60 0 0 -30 c0 -27 -3 -30 -30 -30
l-30 0 0 60 0 60 30 0 c27 0 30 3 30 30 l0 30 -60 0 -60 0 0 -90z"/>
<path d="M290 500 l0 -210 210 0 210 0 0 210 0 210 -210 0 -210 0 0 -210z
m360 0 l0 -150 -150 0 -150 0 0 150 0 150 150 0 150 0 0 -150z"/>
<path d="M410 500 l0 -90 90 0 90 0 0 90 0 90 -90 0 -90 0 0 -90z"/>
</g>
</svg>
